<svg xmlns="http://www.w3.org/2000/svg" width="64" height="64" viewBox="0 0 64 64">
  <path d="M9 36c0-9.941 8.059-18 18-18h12c8.815 0 16.257 6.336 17.652 15.04l1.019 4.252C58.11 39.121 56.725 41 54.856 41H27c-8.837 0-16 7.163-16 16v3H9V36Z" fill="#ffffff"/>
  <path d="M27 18h12c8.815 0 16.257 6.336 17.652 15.04l.798 3.33C58.83 37.952 57.631 39.5 56 39.5H44.83l-3.02-9.056A8 8 0 0 0 34.221 25H27c-3.314 0-6 2.686-6 6v1c0 1.105.895 2 2 2h19.5v3H22c-1.657 0-3-1.343-3-3v-3c0-7.18 5.82-13 13-13Z" fill="#171717" fill-opacity="0.10"/>
  <path d="M22 31c0-2.761 2.239-5 5-5h8.6c2.237 0 4.217 1.485 4.847 3.632L41.6 34H22v-3Z" fill="#171717" fill-opacity="0.08"/>
</svg>
