<svg xmlns="http://www.w3.org/2000/svg" width="64" height="64" viewBox="0 0 64 64">
  <path d="M55 36c0-9.941-8.059-18-18-18H25c-8.815 0-16.257 6.336-17.652 15.04l-1.019 4.252C5.89 39.121 7.275 41 9.144 41H37c8.837 0 16 7.163 16 16v3h2V36Z" fill="#ffffff"/>
  <path d="M37 18H25c-8.815 0-16.257 6.336-17.652 15.04l-.798 3.33C5.17 37.952 6.369 39.5 8 39.5h11.17l3.02-9.056A8 8 0 0 1 29.779 25H37c3.314 0 6 2.686 6 6v1c0 1.105-.895 2-2 2H21.5v3H42c1.657 0 3-1.343 3-3v-3c0-7.18-5.82-13-13-13Z" fill="#171717" fill-opacity="0.10"/>
  <path d="M42 31c0-2.761-2.239-5-5-5h-8.6c-2.237 0-4.217 1.485-4.847 3.632L22.4 34H42v-3Z" fill="#171717" fill-opacity="0.08"/>
</svg>
